<?xml version="1.0"?>
<svg width="640" height="480" xmlns="http://www.w3.org/2000/svg" xmlns:svg="http://www.w3.org/2000/svg">
 <!-- Created with SVG-edit - http://svg-edit.googlecode.com/ -->
 <g>
  <title>Layer 1</title>
  <path fill="#007fff" stroke="#000000" stroke-width="0" stroke-dasharray="null" stroke-linejoin="null" stroke-linecap="null" d="m284.9573,228.49222c0.0018,-0.21022 0.34085,-0.27948 0.48003,-0.42532c0.53727,-0.36057 1.06075,-0.77686 1.39008,-1.34512c0.34987,-0.58061 0.5396,-1.29181 0.39728,-1.96528c-0.07547,-0.4179 -0.48165,-0.75236 -0.91143,-0.70006c-0.28306,0.03873 -0.61002,0.10388 -0.7738,0.36523c-0.17778,0.13353 -0.07997,0.44648 0.15703,0.32762c0.30322,-0.11575 0.68405,0.12028 0.67206,0.45481c0.00035,0.3172 -0.32074,0.54097 -0.61997,0.51119c-0.33328,-0.00333 -0.66321,-0.27226 -0.65624,-0.62088c-0.0231,-0.56189 0.46305,-1.02081 0.98343,-1.13858c0.4653,-0.14499 1.00625,-0.08665 1.39861,0.21497c0.29196,0.19958 0.52187,0.50214 0.56984,0.85926c0.10356,0.4643 -0.03027,0.94346 -0.26245,1.3474c-0.29839,0.54417 -0.75431,0.98966 -1.28355,1.30923c-0.49155,0.31348 -1.00284,0.59658 -1.53177,0.84197c-0.00305,-0.01215 -0.0061,-0.02429 -0.00915,-0.03644l0,0zm3.53123,-2.291c-0.25307,-0.1146 -0.19723,-0.58028 0.09733,-0.59076c0.22041,-0.05142 0.42629,0.17896 0.35825,0.39199c-0.04292,0.19935 -0.28224,0.28576 -0.45557,0.19877l-0.00001,0zm0,-1.2739c-0.25307,-0.1146 -0.19723,-0.58028 0.09733,-0.59076c0.22041,-0.05142 0.42629,0.17896 0.35825,0.39199c-0.04404,0.20003 -0.28101,0.28539 -0.45557,0.19877l-0.00001,0z" id="svg_9"/>
  <text fill="#000000" stroke-width="0" stroke-dasharray="null" stroke-linejoin="null" stroke-linecap="null" x="136" y="352" id="svg_12" font-size="24" font-family="serif" text-anchor="middle" xml:space="preserve" transform="matrix(22.179855346679688,0,0,4.346651077270508,-2767.61141037941,-1195.4342230856419) " stroke="#000000"/>
  <rect id="svg_1" height="489" width="657" y="-10" x="-13" stroke-linecap="null" stroke-linejoin="null" stroke-dasharray="null" stroke-width="0" stroke="#000000" fill="#007fff"/>
  <rect stroke="#000000" id="svg_2" height="151.999999" width="657.00007" y="-10" x="-13.000054" stroke-linecap="null" stroke-linejoin="null" stroke-dasharray="null" stroke-width="0" fill="#ffffff"/>
  <text xml:space="preserve" text-anchor="middle" font-family="serif" font-size="24" id="svg_5" y="292" x="82" stroke-linecap="null" stroke-linejoin="null" stroke-dasharray="null" stroke-width="0" stroke="#000000" fill="#3f3f3f"/>
  <text xml:space="preserve" text-anchor="middle" font-family="serif" font-size="24" id="svg_6" y="333" x="116" stroke-linecap="null" stroke-linejoin="null" stroke-dasharray="null" stroke-width="0" stroke="#000000" fill="#000000"/>
  <text stroke="#000000" transform="matrix(8.47004289879578,0,0,7.424997394620049,-2113.6548592369754,-2499.75245896035) " xml:space="preserve" text-anchor="middle" font-family="serif" font-size="24" id="svg_7" y="376.787878" x="286.070737" stroke-linecap="null" stroke-linejoin="null" stroke-dasharray="null" stroke-width="0" fill="#ffffff">&lt;html&gt;</text>
  <text stroke="#000000" transform="matrix(8.517201888656528,0,0,5.179938637850397,132.50041303254818,-313.53744860644906) " xml:space="preserve" text-anchor="middle" font-family="serif" font-size="24" id="svg_8" y="81.731343" x="2.465551" stroke-linecap="null" stroke-linejoin="null" stroke-dasharray="null" stroke-width="0" fill="#007fff">Y&#x27;B</text>
  <text xml:space="preserve" text-anchor="middle" font-family="serif" font-size="24" id="svg_11" y="468" x="573" stroke-linecap="null" stroke-linejoin="null" stroke-dasharray="null" stroke-width="0" stroke="#000000" fill="#ffffff">Hoja de vida</text>
  <rect stroke="#000000" id="svg_13" height="150" width="656.999995" y="331" x="-13" stroke-linecap="null" stroke-linejoin="null" stroke-dasharray="null" stroke-width="0" fill="#ffffff"/>
  <rect id="svg_15" height="54" width="306" y="330" x="-13" stroke-linecap="null" stroke-linejoin="null" stroke-dasharray="null" stroke-width="0" stroke="#000000" fill="#007fff"/>
  <text stroke="#000000" transform="matrix(2.012629452518553,0,0,1,69.20365162393571,0) " xml:space="preserve" text-anchor="middle" font-family="serif" font-size="24" id="svg_17" y="374" x="35.913482" stroke-linecap="null" stroke-linejoin="null" stroke-dasharray="null" stroke-width="0" fill="#ffffff">web programer</text>
  <text stroke="#000000" transform="matrix(9.186046600341797,0,0,1,-3484.5698052048683,0) " xml:space="preserve" text-anchor="middle" font-family="serif" font-size="24" id="svg_19" y="442" x="431" stroke-linecap="null" stroke-linejoin="null" stroke-dasharray="null" stroke-width="0" fill="#000000"/>
  <text stroke="#000000" transform="matrix(1.496124029159546,0,0,1,-176.96123965084553,0) " xml:space="preserve" text-anchor="middle" font-family="serif" font-size="24" id="svg_20" y="469" x="483.165803" stroke-linecap="null" stroke-linejoin="null" stroke-dasharray="null" stroke-width="0" fill="#007fff">Hoja de vida</text>
  <path stroke="#000000" transform="rotate(88.1402587890625 318.39709472656256,358.350830078125) " id="svg_21" d="m296.07144,376.866623l22.325668,-37.031588l22.325668,37.031588l-44.651335,0z" stroke-linecap="null" stroke-linejoin="null" stroke-dasharray="null" stroke-width="0" fill="#007fff"/>
  <path y="4" x="-303" height="265" width="60" id="svg_22" stroke="#000000" transform="rotate(88.1402587890625 335.39709472656244,357.35083007812506) " d="m313.07144,375.86662l22.32567,-37.03158l22.32567,37.03158l-44.65134,0z" stroke-linecap="null" stroke-linejoin="null" stroke-dasharray="null" stroke-width="0" fill="#007fff"/>
  <rect id="svg_24" height="1" width="10" y="461" x="602" stroke-linecap="null" stroke-linejoin="null" stroke-dasharray="null" stroke-width="0" stroke="#000000" fill="#007fff"/>
 </g>
</svg>